<svg width="458" height="184" viewBox="0 0 458 184" fill="none" xmlns="http://www.w3.org/2000/svg">
<path d="M228.101 59.83C221.037 59.83 214.756 64.239 212.009 68.552C210.438 63.358 206.121 59.83 199.057 59.83C191.894 59.83 185.614 64.533 183.652 67.474V61.006H173.348V108.335H183.652V75.313C185.81 72.177 190.029 68.942 194.543 68.942C200.135 68.942 202.393 72.372 202.393 77.469V108.335H212.696V75.214C214.756 72.177 219.073 68.942 223.686 68.942C229.18 68.942 231.437 72.372 231.437 77.469V108.335H241.74V74.136C241.739 64.533 236.833 59.83 228.101 59.83Z" fill="#EA221D"/>
<path d="M276.476 59.829C261.464 59.829 252.142 71.098 252.142 84.621C252.142 98.242 261.464 109.511 276.476 109.511C291.684 109.511 300.91 98.242 300.91 84.621C300.909 71.098 291.684 59.829 276.476 59.829ZM276.476 100.398C267.743 100.398 262.837 93.047 262.837 84.621C262.837 76.292 267.742 68.943 276.476 68.943C285.307 68.943 290.213 76.292 290.213 84.621C290.213 93.048 285.307 100.398 276.476 100.398Z" fill="#EA221D"/>
<path d="M328.874 79.5261C323.279 78.2531 318.57 77.2731 318.57 73.8431C318.57 70.5101 322.005 68.062 327.401 68.062C333.289 68.062 338.589 70.5101 341.432 73.7451L345.75 66.493C341.432 62.671 335.349 59.8311 327.302 59.8311C315.331 59.8311 308.659 66.4931 308.659 74.2341C308.659 84.8181 318.375 86.9741 326.517 88.7371C332.306 90.0121 337.31 91.0901 337.31 95.0081C337.31 98.7321 334.17 101.377 327.989 101.377C321.806 101.377 315.233 98.1451 311.896 94.7141L307.187 102.161C312.093 106.962 319.452 109.511 327.499 109.511C340.255 109.511 347.221 103.142 347.221 94.812C347.222 83.642 337.115 81.2901 328.874 79.5261Z" fill="#EA221D"/>
<path d="M362.92 95.694C359.192 95.694 356.052 98.83 356.052 102.553C356.052 106.276 359.193 109.412 362.92 109.412C366.649 109.412 369.789 106.276 369.789 102.553C369.789 98.83 366.649 95.694 362.92 95.694Z" fill="#EA221D"/>
<path d="M391.966 67.963V61.005H381.663V108.335H391.966V76.097C394.026 72.764 399.816 69.825 404.134 69.825C405.408 69.825 406.488 69.922 407.371 70.119V59.929C401.188 59.929 395.499 63.455 391.966 67.963Z" fill="#EA221D"/>
<path d="M447.697 61.006V94.225C445.244 97.458 440.73 100.398 435.529 100.398C429.74 100.398 426.012 98.145 426.012 90.795V61.006H415.708V94.52C415.708 104.22 420.714 109.511 430.917 109.511C438.374 109.511 444.263 105.886 447.696 102.065V108.336H458V61.006H447.697Z" fill="#EA221D"/>
<path d="M0 138.773C0 147.522 7.127 154.638 15.887 154.638H59.449V184L69.068 173.872C82.788 159.672 93.701 154.638 110.767 154.638H126.396C135.156 154.638 142.283 147.522 142.283 138.773V0H0V138.773ZM10.472 10.458H131.811V138.773C131.811 141.755 129.382 144.18 126.396 144.18H110.767C95.735 144.18 82.759 146.664 68.256 162.523L68.199 144.18H15.887C12.901 144.18 10.472 141.755 10.472 138.773V10.458V10.458Z" fill="#EA221D"/>
</svg>
